<svg width="24" height="24" viewBox="0 0 24 24" fill="none" xmlns="http://www.w3.org/2000/svg">
<g clip-path="url(#clip0_126_3631)">
<path d="M12.5 23H11.71L11.43 22.73C12.41 21.59 13 20.11 13 18.5C13 14.91 10.09 12 6.5 12C2.91 12 0 14.91 0 18.5C0 22.09 2.91 25 6.5 25C8.11 25 9.59 24.41 10.73 23.43L11 23.71V24.5L16 29.49L17.49 28L12.5 23ZM6.5 23C4.01 23 2 20.99 2 18.5C2 16.01 4.01 14 6.5 14C8.99 14 11 16.01 11 18.5C11 20.99 8.99 23 6.5 23Z" fill="white"/>
</g>
<defs>
<clipPath id="clip0_126_3631">
<rect width="24" height="24" fill="white"/>
</clipPath>
</defs>
</svg>
